<!DOCTYPE svg PUBLIC "-//W3C//DTD SVG 1.1//EN" "http://www.w3.org/Graphics/SVG/1.1/DTD/svg11.dtd">
<!-- Uploaded to: SVG Repo, www.svgrepo.com, Transformed by: SVG Repo Mixer Tools -->
<svg width="800px" height="800px" viewBox="0 0 48 48" fill="none" xmlns="http://www.w3.org/2000/svg">
<g id="SVGRepo_bgCarrier" stroke-width="0"/>
<g id="SVGRepo_tracerCarrier" stroke-linecap="round" stroke-linejoin="round"/>
<g id="SVGRepo_iconCarrier"> <g id="upload"> <g id="upload_2"> <path id="Combined Shape" fill-rule="evenodd" clip-rule="evenodd" d="M6 6.99976V10.9998C6 11.552 5.55228 11.9998 5 11.9998C4.44772 11.9998 4 11.552 4 10.9998V6.99976C4 5.34347 5.34372 3.99976 7 3.99976H41C42.6563 3.99976 44 5.34347 44 6.99976V10.9998C44 11.552 43.5523 11.9998 43 11.9998C42.4477 11.9998 42 11.552 42 10.9998V6.99976C42 6.44804 41.5517 5.99976 41 5.99976H7C6.44828 5.99976 6 6.44804 6 6.99976ZM25.7729 10.9402C24.9223 9.69246 23.081 9.69246 22.2267 10.9402L14.3747 22.4502C13.4045 23.8775 14.424 25.8058 16.1488 25.8058H25V40.9014C25 41.4531 24.5517 41.9014 24 41.9014C23.4483 41.9014 23 41.4531 23 40.9014V28.9334C23 28.3811 22.5523 27.9334 22 27.9334C21.4477 27.9334 21 28.3811 21 28.9334V40.9014C21 42.5576 22.3437 43.9014 24 43.9014C25.6563 43.9014 27 42.5576 27 40.9014V25.8058H31.8508C33.5756 25.8058 34.5951 23.8775 33.6258 22.4516L25.7729 10.9402ZM27 23.8058H31.8508C31.9694 23.8058 32.0388 23.6745 31.9727 23.5773L24.1205 12.067C24.0634 11.9832 23.9369 11.9831 23.8782 12.0683L16.0278 23.5759C15.9608 23.6745 16.0302 23.8058 16.1488 23.8058H25V21.0794C25 20.5271 25.4477 20.0794 26 20.0794C26.5523 20.0794 27 20.5271 27 21.0794V23.8058Z" fill="#c7e2b2"/> </g> </g> </g>
</svg>