<!DOCTYPE svg PUBLIC "-//W3C//DTD SVG 1.1//EN" "http://www.w3.org/Graphics/SVG/1.1/DTD/svg11.dtd">
<!-- Uploaded to: SVG Repo, www.svgrepo.com, Transformed by: SVG Repo Mixer Tools -->
<svg width="800px" height="800px" viewBox="0 0 48 48" fill="none" xmlns="http://www.w3.org/2000/svg" stroke="">
<g id="SVGRepo_bgCarrier" stroke-width="0"/>
<g id="SVGRepo_tracerCarrier" stroke-linecap="round" stroke-linejoin="round"/>
<g id="SVGRepo_iconCarrier"> <g id="home"> <g id="home_2"> <path id="Combined Shape" fill-rule="evenodd" clip-rule="evenodd" d="M43.47 24.6069C44.2064 23.4083 44.0527 21.8564 42.9778 20.8436L26.0229 4.81864C24.8648 3.72658 23.0592 3.72658 21.9019 4.81786L4.94313 20.8446C2.97172 22.708 4.29142 26.0254 7.00399 26.0254H9.92499V41.0066C9.92499 42.6643 11.2682 44.0066 12.925 44.0066H34.999C36.6558 44.0066 37.999 42.6643 37.999 41.0066V22.9566C37.999 21.2989 36.6558 19.9566 34.999 19.9566H12.925C11.2682 19.9566 9.92499 21.2989 9.92499 22.9566V24.0254H7.00399C6.10051 24.0254 5.66029 22.9188 6.3169 22.2981L23.2748 6.2722C23.6608 5.90822 24.2632 5.90822 24.6499 6.27293L41.6051 22.2982C41.9643 22.6366 42.0184 23.1301 41.778 23.5399C41.7741 23.5458 41.7704 23.5518 41.7667 23.5578C41.5852 23.8521 41.2883 24.0248 40.9198 24.0248C40.3675 24.0248 39.9198 24.4725 39.9198 25.0248C39.9198 25.5771 40.3675 26.0248 40.9198 26.0248C41.9825 26.0248 42.9064 25.495 43.4482 24.6409C43.4557 24.6297 43.463 24.6184 43.47 24.6069ZM11.925 41.0066V26.0254H23.836C24.3883 26.0254 24.836 25.5777 24.836 25.0254C24.836 24.4731 24.3883 24.0254 23.836 24.0254H11.925V22.9566C11.925 22.4037 12.3724 21.9566 12.925 21.9566H34.999C35.5515 21.9566 35.999 22.4037 35.999 22.9566V41.0066C35.999 41.5595 35.5515 42.0066 34.999 42.0066H12.925C12.3724 42.0066 11.925 41.5595 11.925 41.0066Z" fill="#c7e2b2"/> </g> </g> </g>
</svg>